Hermit-Regular.ufo
<glyph name="dollar" format="1">
  <advance width="618"/>
  <unicode hex="0024"/>
  <note>
    dollar
  </note>
  <outline>
    <contour>
      <point x="354" y="0" type="line"/>
      <point x="354" y="90" type="line"/>
      <point x="469" y="92"/>
      <point x="540" y="90"/>
      <point x="540" y="257" type="curve" smooth="yes"/>
      <point x="540" y="420"/>
      <point x="449" y="417"/>
      <point x="354" y="420" type="curve"/>
      <point x="354" y="570" type="line"/>
      <point x="417" y="568"/>
      <point x="450" y="540"/>
      <point x="450" y="493" type="curve"/>
      <point x="540" y="493" type="line"/>
      <point x="540" y="660"/>
      <point x="469" y="658"/>
      <point x="354" y="660" type="curve"/>
      <point x="354" y="750" type="line"/>
      <point x="264" y="750" type="line"/>
      <point x="264" y="660" type="line"/>
      <point x="150" y="658"/>
      <point x="78" y="660"/>
      <point x="78" y="493" type="curve" smooth="yes"/>
      <point x="78" y="330"/>
      <point x="170" y="333"/>
      <point x="264" y="330" type="curve"/>
      <point x="264" y="180" type="line"/>
      <point x="202" y="182"/>
      <point x="168" y="180"/>
      <point x="168" y="257" type="curve"/>
      <point x="78" y="257" type="line"/>
      <point x="78" y="90"/>
      <point x="150" y="92"/>
      <point x="264" y="90" type="curve"/>
      <point x="264" y="0" type="line"/>
    </contour>
    <contour>
      <point x="354" y="330" type="line"/>
      <point x="417" y="328"/>
      <point x="450" y="330"/>
      <point x="450" y="257" type="curve" smooth="yes"/>
      <point x="450" y="180"/>
      <point x="417" y="182"/>
      <point x="354" y="180" type="curve"/>
    </contour>
    <contour>
      <point x="202" y="422"/>
      <point x="168" y="420"/>
      <point x="168" y="493" type="curve" smooth="yes"/>
      <point x="168" y="570"/>
      <point x="202" y="568"/>
      <point x="264" y="570" type="curve"/>
      <point x="264" y="420" type="line"/>
    </contour>
  </outline>
</glyph>
<glyph name="ampersand" format="1">
  <advance width="618"/>
  <unicode hex="0026"/>
  <note>
    ampersand
  </note>
  <outline>
    <contour>
      <point x="385" y="0"/>
      <point x="415" y="12"/>
      <point x="445" y="38" type="curve"/>
      <point x="448" y="26"/>
      <point x="450" y="12"/>
      <point x="450" y="0" type="curve"/>
      <point x="540" y="0" type="line"/>
      <point x="540" y="41"/>
      <point x="526" y="81"/>
      <point x="504" y="120" type="curve"/>
      <point x="526" y="168"/>
      <point x="540" y="231"/>
      <point x="540" y="312" type="curve"/>
      <point x="450" y="312" type="line"/>
      <point x="450" y="262" type="line" smooth="yes"/>
      <point x="450" y="243"/>
      <point x="450" y="222"/>
      <point x="447" y="201" type="curve"/>
      <point x="337" y="331"/>
      <point x="168" y="442"/>
      <point x="168" y="500" type="curve" smooth="yes"/>
      <point x="168" y="584"/>
      <point x="255" y="584"/>
      <point x="264" y="584" type="curve" smooth="yes"/>
      <point x="274" y="584"/>
      <point x="355" y="584"/>
      <point x="355" y="500" type="curve"/>
      <point x="445" y="500" type="line"/>
      <point x="445" y="500"/>
      <point x="445" y="674"/>
      <point x="264" y="674" type="curve" smooth="yes"/>
      <point x="78" y="674"/>
      <point x="78" y="500"/>
      <point x="78" y="500" type="curve"/>
      <point x="78" y="462"/>
      <point x="100" y="423"/>
      <point x="133" y="386" type="curve"/>
      <point x="105" y="360"/>
      <point x="78" y="320"/>
      <point x="78" y="250" type="curve" smooth="yes"/>
      <point x="78" y="52"/>
      <point x="127" y="0"/>
      <point x="355" y="0" type="curve" smooth="yes"/>
    </contour>
    <contour>
      <point x="187" y="90"/>
      <point x="168" y="110"/>
      <point x="168" y="250" type="curve" smooth="yes"/>
      <point x="168" y="299"/>
      <point x="174" y="314"/>
      <point x="192" y="328" type="curve"/>
      <point x="266" y="260"/>
      <point x="359" y="191"/>
      <point x="411" y="114" type="curve"/>
      <point x="397" y="100"/>
      <point x="379" y="90"/>
      <point x="355" y="90" type="curve" smooth="yes"/>
    </contour>
  </outline>
</glyph>
<glyph name="asterisk" format="1">
  <advance width="618"/>
  <unicode hex="002A"/>
  <note>
    asterisk
  </note>
  <outline>
    <contour>
      <point x="354" y="80" type="line"/>
      <point x="354" y="243" type="line"/>
      <point x="489" y="150" type="line"/>
      <point x="540" y="222" type="line"/>
      <point x="386" y="330" type="line"/>
      <point x="540" y="438" type="line"/>
      <point x="489" y="510" type="line"/>
      <point x="354" y="417" type="line"/>
      <point x="354" y="580" type="line"/>
      <point x="264" y="580" type="line"/>
      <point x="264" y="417" type="line"/>
      <point x="130" y="510" type="line"/>
      <point x="78" y="438" type="line"/>
      <point x="230" y="330" type="line"/>
      <point x="78" y="222" type="line"/>
      <point x="130" y="150" type="line"/>
      <point x="264" y="243" type="line"/>
      <point x="264" y="80" type="line"/>
    </contour>
  </outline>
</glyph>
<glyph name="comma" format="1">
  <advance width="618"/>
  <unicode hex="002C"/>
  <note>
    comma
  </note>
  <outline>
    <contour>
      <point x="355" y="-160"/>
      <point x="399" y="-12"/>
      <point x="399" y="90" type="curve" smooth="yes"/>
      <point x="399" y="135"/>
      <point x="354" y="180"/>
      <point x="309" y="180" type="curve" smooth="yes"/>
      <point x="264" y="180"/>
      <point x="219" y="135"/>
      <point x="219" y="90" type="curve" smooth="yes"/>
      <point x="219" y="48"/>
      <point x="259" y="7"/>
      <point x="301" y="1" type="curve"/>
      <point x="277" y="-111"/>
      <point x="211" y="-147"/>
      <point x="211" y="-157" type="curve" smooth="yes"/>
      <point x="211" y="-159"/>
      <point x="213" y="-160"/>
      <point x="220" y="-160" type="curve" smooth="yes"/>
    </contour>
  </outline>
</glyph>
<glyph name="two" format="1">
  <advance width="618"/>
  <unicode hex="0032"/>
  <note>
    two
  </note>
  <outline>
    <contour>
      <point x="540" y="0" type="line"/>
      <point x="540" y="90" type="line"/>
      <point x="220" y="90" type="line" smooth="yes"/>
      <point x="220" y="90"/>
      <point x="540" y="346"/>
      <point x="540" y="500" type="curve" smooth="yes"/>
      <point x="540" y="610"/>
      <point x="539" y="750"/>
      <point x="309" y="750" type="curve" smooth="yes"/>
      <point x="79" y="750"/>
      <point x="78" y="620"/>
      <point x="78" y="500" type="curve"/>
      <point x="168" y="500" type="line"/>
      <point x="168" y="570"/>
      <point x="169" y="660"/>
      <point x="309" y="660" type="curve" smooth="yes"/>
      <point x="449" y="660"/>
      <point x="450" y="572"/>
      <point x="450" y="500" type="curve" smooth="yes"/>
      <point x="450" y="375"/>
      <point x="132" y="138"/>
      <point x="78" y="90" type="curve"/>
      <point x="78" y="0" type="line"/>
    </contour>
  </outline>
</glyph>
<glyph name="six" format="1">
  <advance width="618"/>
  <unicode hex="0036"/>
  <note>
    six
  </note>
  <outline>
    <contour>
      <point x="449" y="0"/>
      <point x="540" y="90"/>
      <point x="540" y="232" type="curve" smooth="yes"/>
      <point x="540" y="374"/>
      <point x="449" y="465"/>
      <point x="309" y="465" type="curve" smooth="yes"/>
      <point x="255" y="465"/>
      <point x="193" y="439"/>
      <point x="169" y="415" type="curve"/>
      <point x="175" y="599"/>
      <point x="226" y="660"/>
      <point x="309" y="660" type="curve" smooth="yes"/>
      <point x="399" y="660"/>
      <point x="418" y="618"/>
      <point x="418" y="602" type="curve"/>
      <point x="508" y="602" type="line"/>
      <point x="508" y="670"/>
      <point x="449" y="750"/>
      <point x="309" y="750" type="curve" smooth="yes"/>
      <point x="169" y="750"/>
      <point x="78" y="660"/>
      <point x="78" y="375" type="curve" smooth="yes"/>
      <point x="78" y="232" type="line" smooth="yes"/>
      <point x="78" y="90"/>
      <point x="169" y="0"/>
      <point x="309" y="0" type="curve" smooth="yes"/>
    </contour>
    <contour>
      <point x="219" y="90"/>
      <point x="168" y="142"/>
      <point x="168" y="232" type="curve" smooth="yes"/>
      <point x="168" y="322"/>
      <point x="219" y="375"/>
      <point x="309" y="375" type="curve" smooth="yes"/>
      <point x="399" y="375"/>
      <point x="450" y="322"/>
      <point x="450" y="232" type="curve" smooth="yes"/>
      <point x="450" y="142"/>
      <point x="399" y="90"/>
      <point x="309" y="90" type="curve" smooth="yes"/>
    </contour>
  </outline>
</glyph>
<glyph name="F" format="1">
  <advance width="618"/>
  <unicode hex="0046"/>
  <note>
    F
  </note>
  <outline>
    <contour>
      <point x="168" y="0" type="line"/>
      <point x="168" y="330" type="line"/>
      <point x="354" y="330" type="line"/>
      <point x="354" y="420" type="line"/>
      <point x="168" y="420" type="line"/>
      <point x="168" y="660" type="line"/>
      <point x="540" y="660" type="line"/>
      <point x="540" y="750" type="line"/>
      <point x="78" y="750" type="line"/>
      <point x="78" y="0" type="line"/>
    </contour>
    <contour>
      <point x="309" y="750" type="move" name="top"/>
    </contour>
    <contour>
      <point x="309" y="0" type="move" name="bottom"/>
    </contour>
  </outline>
</glyph>
<glyph name="I" format="1">
  <advance width="618"/>
  <unicode hex="0049"/>
  <note>
    I
  </note>
  <outline>
    <contour>
      <point x="520" y="0" type="line"/>
      <point x="520" y="90" type="line"/>
      <point x="354" y="90" type="line"/>
      <point x="354" y="660" type="line"/>
      <point x="520" y="660" type="line"/>
      <point x="520" y="750" type="line"/>
      <point x="98" y="750" type="line"/>
      <point x="98" y="660" type="line"/>
      <point x="264" y="660" type="line"/>
      <point x="264" y="90" type="line"/>
      <point x="98" y="90" type="line"/>
      <point x="98" y="0" type="line"/>
    </contour>
    <contour>
      <point x="520" y="0" type="move" name="ogonek"/>
    </contour>
    <contour>
      <point x="309" y="750" type="move" name="top"/>
    </contour>
    <contour>
      <point x="20" y="750" type="move" name="topleft"/>
    </contour>
    <contour>
      <point x="309" y="0" type="move" name="bottom"/>
    </contour>
  </outline>
</glyph>
<glyph name="J" format="1">
  <advance width="618"/>
  <unicode hex="004A"/>
  <note>
    J
  </note>
  <outline>
    <contour>
      <point x="450" y="0"/>
      <point x="540" y="0"/>
      <point x="540" y="250" type="curve" smooth="yes"/>
      <point x="540" y="750" type="line"/>
      <point x="309" y="750" type="line"/>
      <point x="309" y="660" type="line"/>
      <point x="450" y="660" type="line"/>
      <point x="450" y="250" type="line" smooth="yes"/>
      <point x="450" y="90"/>
      <point x="399" y="90"/>
      <point x="309" y="90" type="curve" smooth="yes"/>
      <point x="219" y="90"/>
      <point x="168" y="90"/>
      <point x="168" y="250" type="curve"/>
      <point x="78" y="250" type="line"/>
      <point x="78" y="0"/>
      <point x="168" y="0"/>
      <point x="309" y="0" type="curve" smooth="yes"/>
    </contour>
    <contour>
      <point x="309" y="750" type="move" name="top"/>
    </contour>
    <contour>
      <point x="309" y="0" type="move" name="bottom"/>
    </contour>
  </outline>
</glyph>
<glyph name="K" format="1">
  <advance width="618"/>
  <unicode hex="004B"/>
  <note>
    K
  </note>
  <outline>
    <contour>
      <point x="178" y="0" type="line"/>
      <point x="309" y="272" type="line"/>
      <point x="441" y="0" type="line"/>
      <point x="540" y="0" type="line"/>
      <point x="359" y="375" type="line"/>
      <point x="540" y="750" type="line"/>
      <point x="441" y="750" type="line"/>
      <point x="168" y="186" type="line"/>
      <point x="168" y="750" type="line"/>
      <point x="78" y="750" type="line"/>
      <point x="78" y="0" type="line"/>
    </contour>
    <contour>
      <point x="309" y="750" type="move" name="top"/>
    </contour>
    <contour>
      <point x="309" y="0" type="move" name="bottom"/>
    </contour>
  </outline>
</glyph>
<glyph name="Q" format="1">
  <advance width="618"/>
  <unicode hex="0051"/>
  <note>
    Q
  </note>
  <outline>
    <contour>
      <point x="342" y="0"/>
      <point x="381" y="18"/>
      <point x="416" y="51" type="curve"/>
      <point x="441" y="0" type="line"/>
      <point x="540" y="0" type="line"/>
      <point x="477" y="130" type="line"/>
      <point x="514" y="194"/>
      <point x="540" y="277"/>
      <point x="540" y="375" type="curve" smooth="yes"/>
      <point x="540" y="750"/>
      <point x="449" y="750"/>
      <point x="309" y="750" type="curve" smooth="yes"/>
      <point x="169" y="750"/>
      <point x="78" y="750"/>
      <point x="78" y="375" type="curve" smooth="yes"/>
      <point x="78" y="0"/>
      <point x="169" y="0"/>
      <point x="309" y="0" type="curve" smooth="yes"/>
    </contour>
    <contour>
      <point x="219" y="90"/>
      <point x="168" y="90"/>
      <point x="168" y="375" type="curve" smooth="yes"/>
      <point x="168" y="660"/>
      <point x="219" y="660"/>
      <point x="309" y="660" type="curve" smooth="yes"/>
      <point x="399" y="660"/>
      <point x="450" y="660"/>
      <point x="450" y="375" type="curve" smooth="yes"/>
      <point x="450" y="313"/>
      <point x="445" y="261"/>
      <point x="435" y="219" type="curve"/>
      <point x="403" y="285" type="line"/>
      <point x="303" y="285" type="line"/>
      <point x="344" y="199"/>
      <point x="343" y="204"/>
      <point x="384" y="118" type="curve"/>
      <point x="364" y="98"/>
      <point x="337" y="90"/>
      <point x="309" y="90" type="curve" smooth="yes"/>
    </contour>
    <contour>
      <point x="309" y="750" type="move" name="top"/>
    </contour>
    <contour>
      <point x="309" y="0" type="move" name="bottom"/>
    </contour>
  </outline>
</glyph>
<glyph name="backslash" format="1">
  <advance width="618"/>
  <unicode hex="005C"/>
  <note>
    backslash
  </note>
  <outline>
    <contour>
      <point x="501" y="-90" type="line"/>
      <point x="213" y="750" type="line"/>
      <point x="117" y="750" type="line"/>
      <point x="405" y="-90" type="line"/>
    </contour>
  </outline>
</glyph>
<glyph name="bracketright" format="1">
  <advance width="618"/>
  <unicode hex="005D"/>
  <note>
    bracketright
  </note>
  <outline>
    <contour>
      <point x="501" y="-90" type="line"/>
      <point x="501" y="750" type="line"/>
      <point x="117" y="750" type="line"/>
      <point x="117" y="660" type="line"/>
      <point x="411" y="660" type="line"/>
      <point x="411" y="0" type="line"/>
      <point x="117" y="0" type="line"/>
      <point x="117" y="-90" type="line"/>
    </contour>
  </outline>
</glyph>
<glyph name="asciicircum" format="1">
  <advance width="618"/>
  <unicode hex="005E"/>
  <note>
    asciicircum
  </note>
  <outline>
    <contour>
      <point x="214" y="375" type="line"/>
      <point x="309" y="617" type="line"/>
      <point x="404" y="375" type="line"/>
      <point x="501" y="375" type="line"/>
      <point x="354" y="750" type="line"/>
      <point x="264" y="750" type="line"/>
      <point x="117" y="375" type="line"/>
    </contour>
  </outline>
</glyph>
<glyph name="underscore" format="1">
  <advance width="618"/>
  <unicode hex="005F"/>
  <note>
    underscore
  </note>
  <outline>
    <contour>
      <point x="540" y="-90" type="line"/>
      <point x="540" y="0" type="line"/>
      <point x="78" y="0" type="line"/>
      <point x="78" y="-90" type="line"/>
    </contour>
  </outline>
</glyph>
<glyph name="a" format="1">
  <advance width="618"/>
  <unicode hex="0061"/>
  <note>
    a
  </note>
  <outline>
    <contour>
      <point x="540" y="0" type="line"/>
      <point x="540" y="295" type="line" smooth="yes"/>
      <point x="540" y="338"/>
      <point x="526" y="500"/>
      <point x="309" y="500" type="curve" smooth="yes"/>
      <point x="234" y="500"/>
      <point x="164" y="471"/>
      <point x="102" y="440" type="curve"/>
      <point x="142" y="365" type="line"/>
      <point x="187" y="387"/>
      <point x="229" y="410"/>
      <point x="309" y="410" type="curve" smooth="yes"/>
      <point x="384" y="410"/>
      <point x="450" y="391"/>
      <point x="450" y="295" type="curve"/>
      <point x="309" y="295" type="line" smooth="yes"/>
      <point x="169" y="295"/>
      <point x="78" y="274"/>
      <point x="78" y="148" type="curve" smooth="yes"/>
      <point x="78" y="36"/>
      <point x="169" y="0"/>
      <point x="309" y="0" type="curve" smooth="yes"/>
    </contour>
    <contour>
      <point x="237" y="90"/>
      <point x="168" y="90"/>
      <point x="168" y="148" type="curve" smooth="yes"/>
      <point x="168" y="204"/>
      <point x="237" y="205"/>
      <point x="309" y="205" type="curve" smooth="yes"/>
      <point x="450" y="205" type="line"/>
      <point x="450" y="90" type="line"/>
      <point x="309" y="90" type="line" smooth="yes"/>
    </contour>
    <contour>
      <point x="539" y="0" type="move" name="ogonek"/>
    </contour>
    <contour>
      <point x="309" y="0" type="move" name="bottom"/>
    </contour>
    <contour>
      <point x="309" y="500" type="move" name="top"/>
    </contour>
  </outline>
</glyph>
<glyph name="i" format="1">
  <advance width="618"/>
  <unicode hex="0069"/>
  <note>
    i
  </note>
  <outline>
    <contour>
      <point x="245" y="750"/>
      <point x="200" y="705"/>
      <point x="200" y="660" type="curve" smooth="yes"/>
      <point x="200" y="615"/>
      <point x="245" y="570"/>
      <point x="290" y="570" type="curve" smooth="yes"/>
      <point x="335" y="570"/>
      <point x="380" y="615"/>
      <point x="380" y="660" type="curve" smooth="yes"/>
      <point x="380" y="705"/>
      <point x="335" y="750"/>
      <point x="290" y="750" type="curve" smooth="yes"/>
    </contour>
    <component base="idotless"/>
    <contour>
      <point x="309" y="0" type="move" name="bottom"/>
    </contour>
  </outline>
</glyph>
<glyph name="j" format="1">
  <advance width="618"/>
  <unicode hex="006A"/>
  <note>
    j
  </note>
  <outline>
    <contour>
      <point x="343" y="750"/>
      <point x="299" y="705"/>
      <point x="299" y="660" type="curve" smooth="yes"/>
      <point x="299" y="615"/>
      <point x="343" y="570"/>
      <point x="388" y="570" type="curve" smooth="yes"/>
      <point x="433" y="570"/>
      <point x="478" y="615"/>
      <point x="478" y="660" type="curve" smooth="yes"/>
      <point x="478" y="705"/>
      <point x="433" y="750"/>
      <point x="388" y="750" type="curve" smooth="yes"/>
    </contour>
    <component base="jdotless"/>
  </outline>
</glyph>
<glyph name="k" format="1">
  <advance width="618"/>
  <unicode hex="006B"/>
  <note>
    k
  </note>
  <outline>
    <contour>
      <point x="188" y="0" type="line"/>
      <point x="309" y="172" type="line"/>
      <point x="431" y="0" type="line"/>
      <point x="540" y="0" type="line"/>
      <point x="365" y="250" type="line"/>
      <point x="540" y="500" type="line"/>
      <point x="431" y="500" type="line"/>
      <point x="168" y="128" type="line"/>
      <point x="168" y="750" type="line"/>
      <point x="78" y="750" type="line"/>
      <point x="78" y="0" type="line"/>
    </contour>
    <contour>
      <point x="309" y="500" type="move" name="top"/>
    </contour>
    <contour>
      <point x="309" y="0" type="move" name="bottom"/>
    </contour>
  </outline>
</glyph>
<glyph name="m" format="1">
  <advance width="618"/>
  <unicode hex="006D"/>
  <note>
    m
  </note>
  <outline>
    <contour>
      <point x="152" y="0" type="line"/>
      <point x="152" y="270" type="line" smooth="yes"/>
      <point x="152" y="386"/>
      <point x="156" y="399"/>
      <point x="263" y="399" type="curve"/>
      <point x="263" y="0" type="line"/>
      <point x="353" y="0" type="line"/>
      <point x="353" y="399" type="line"/>
      <point x="460" y="399"/>
      <point x="466" y="386"/>
      <point x="466" y="278" type="curve" smooth="yes"/>
      <point x="466" y="0" type="line"/>
      <point x="556" y="0" type="line"/>
      <point x="556" y="270" type="line" smooth="yes"/>
      <point x="556" y="490"/>
      <point x="551" y="500"/>
      <point x="308" y="500" type="curve" smooth="yes"/>
      <point x="66" y="500"/>
      <point x="62" y="489"/>
      <point x="62" y="270" type="curve" smooth="yes"/>
      <point x="62" y="0" type="line"/>
    </contour>
    <contour>
      <point x="309" y="500" type="move" name="top"/>
    </contour>
    <contour>
      <point x="309" y="0" type="move" name="bottom"/>
    </contour>
  </outline>
</glyph>
<glyph name="q" format="1">
  <advance width="618"/>
  <unicode hex="0071"/>
  <note>
    q
  </note>
  <outline>
    <contour>
      <point x="540" y="-250" type="line"/>
      <point x="540" y="500" type="line"/>
      <point x="309" y="500" type="line" smooth="yes"/>
      <point x="79" y="500"/>
      <point x="78" y="250"/>
      <point x="78" y="250" type="curve" smooth="yes"/>
      <point x="78" y="250"/>
      <point x="79" y="0"/>
      <point x="309" y="0" type="curve" smooth="yes"/>
      <point x="450" y="0" type="line"/>
      <point x="450" y="-250" type="line"/>
    </contour>
    <contour>
      <point x="169" y="90"/>
      <point x="168" y="250"/>
      <point x="168" y="250" type="curve" smooth="yes"/>
      <point x="168" y="250"/>
      <point x="169" y="410"/>
      <point x="309" y="410" type="curve" smooth="yes"/>
      <point x="450" y="410" type="line"/>
      <point x="450" y="90" type="line"/>
      <point x="309" y="90" type="line" smooth="yes"/>
    </contour>
    <contour>
      <point x="309" y="500" type="move" name="top"/>
    </contour>
    <contour>
      <point x="309" y="0" type="move" name="bottom"/>
    </contour>
  </outline>
</glyph>
<glyph name="y" format="1">
  <advance width="618"/>
  <unicode hex="0079"/>
  <note>
    y
  </note>
  <outline>
    <contour>
      <point x="265" y="-250" type="line"/>
      <point x="539" y="500" type="line"/>
      <point x="442" y="500" type="line"/>
      <point x="309" y="130" type="line"/>
      <point x="175" y="500" type="line"/>
      <point x="78" y="500" type="line"/>
      <point x="261" y="0" type="line"/>
      <point x="171" y="-250" type="line"/>
    </contour>
    <contour>
      <point x="309" y="500" type="move" name="top"/>
    </contour>
    <contour>
      <point x="309" y="0" type="move" name="bottom"/>
    </contour>
  </outline>
</glyph>
<glyph name="cent" format="1">
  <advance width="618"/>
  <unicode hex="00A2"/>
  <note>
    cent
  </note>
  <outline>
    <contour>
      <point x="354" y="0" type="line"/>
      <point x="354" y="125" type="line"/>
      <point x="439" y="128"/>
      <point x="540" y="149"/>
      <point x="540" y="284" type="curve"/>
      <point x="450" y="284" type="line"/>
      <point x="450" y="232"/>
      <point x="399" y="219"/>
      <point x="354" y="215" type="curve"/>
      <point x="354" y="533" type="line"/>
      <point x="399" y="529"/>
      <point x="450" y="516"/>
      <point x="450" y="464" type="curve"/>
      <point x="540" y="464" type="line"/>
      <point x="540" y="599"/>
      <point x="439" y="620"/>
      <point x="354" y="623" type="curve"/>
      <point x="354" y="750" type="line"/>
      <point x="264" y="750" type="line"/>
      <point x="264" y="621" type="line"/>
      <point x="150" y="603"/>
      <point x="78" y="516"/>
      <point x="78" y="374" type="curve" smooth="yes"/>
      <point x="78" y="232"/>
      <point x="150" y="145"/>
      <point x="264" y="127" type="curve"/>
      <point x="264" y="0" type="line"/>
    </contour>
    <contour>
      <point x="202" y="240"/>
      <point x="168" y="300"/>
      <point x="168" y="374" type="curve" smooth="yes"/>
      <point x="168" y="448"/>
      <point x="202" y="508"/>
      <point x="264" y="527" type="curve"/>
      <point x="264" y="221" type="line"/>
    </contour>
  </outline>
</glyph>
<glyph name="currency" format="1">
  <advance width="618"/>
  <unicode hex="00A4"/>
  <outline>
    <contour>
      <point x="201" y="100" type="line"/>
      <point x="253" y="74"/>
      <point x="307" y="73"/>
      <point x="309" y="73" type="curve" smooth="yes"/>
      <point x="311" y="73"/>
      <point x="364" y="74"/>
      <point x="416" y="100" type="curve"/>
      <point x="513" y="0" type="line"/>
      <point x="576" y="63" type="line"/>
      <point x="483" y="158" type="line"/>
      <point x="502" y="185"/>
      <point x="515" y="222"/>
      <point x="515" y="271" type="curve" smooth="yes"/>
      <point x="515" y="320"/>
      <point x="502" y="357"/>
      <point x="483" y="385" type="curve"/>
      <point x="576" y="479" type="line"/>
      <point x="513" y="542" type="line"/>
      <point x="415" y="443" type="line"/>
      <point x="363" y="469"/>
      <point x="309" y="469"/>
      <point x="309" y="469" type="curve" smooth="yes"/>
      <point x="309" y="469"/>
      <point x="255" y="469"/>
      <point x="202" y="442" type="curve"/>
      <point x="101" y="542" type="line"/>
      <point x="38" y="479" type="line"/>
      <point x="134" y="384" type="line"/>
      <point x="115" y="356"/>
      <point x="103" y="319"/>
      <point x="103" y="271" type="curve" smooth="yes"/>
      <point x="103" y="223"/>
      <point x="115" y="186"/>
      <point x="134" y="159" type="curve"/>
      <point x="38" y="63" type="line"/>
      <point x="101" y="0" type="line"/>
    </contour>
    <contour>
      <point x="309" y="156"/>
      <point x="193" y="157"/>
      <point x="193" y="271" type="curve" smooth="yes"/>
      <point x="193" y="385"/>
      <point x="309" y="386"/>
      <point x="309" y="386" type="curve" smooth="yes"/>
      <point x="309" y="386"/>
      <point x="425" y="385"/>
      <point x="425" y="271" type="curve" smooth="yes"/>
      <point x="425" y="157"/>
      <point x="309" y="156"/>
      <point x="309" y="156" type="curve" smooth="yes"/>
    </contour>
  </outline>
</glyph>
<glyph name="yen" format="1">
  <advance width="618"/>
  <unicode hex="00A5"/>
  <note>
    yen
  </note>
  <outline>
    <contour>
      <point x="354" y="0" type="line"/>
      <point x="354" y="160" type="line"/>
      <point x="501" y="160" type="line"/>
      <point x="501" y="250" type="line"/>
      <point x="354" y="250" type="line"/>
      <point x="354" y="285" type="line"/>
      <point x="501" y="285" type="line"/>
      <point x="501" y="375" type="line"/>
      <point x="354" y="375" type="line"/>
      <point x="540" y="750" type="line"/>
      <point x="439" y="750" type="line"/>
      <point x="309" y="486" type="line"/>
      <point x="178" y="750" type="line"/>
      <point x="78" y="750" type="line"/>
      <point x="264" y="375" type="line"/>
      <point x="117" y="375" type="line"/>
      <point x="117" y="285" type="line"/>
      <point x="264" y="285" type="line"/>
      <point x="264" y="250" type="line"/>
      <point x="117" y="250" type="line"/>
      <point x="117" y="160" type="line"/>
      <point x="264" y="160" type="line"/>
      <point x="264" y="0" type="line"/>
    </contour>
  </outline>
</glyph>
<glyph name="guillemetleft" format="1">
  <advance width="618"/>
  <unicode hex="00AB"/>
  <note>
    guillemotleft
  </note>
  <outline>
    <contour>
      <point x="540" y="182" type="line"/>
      <point x="417" y="330" type="line"/>
      <point x="540" y="478" type="line"/>
      <point x="540" y="580" type="line"/>
      <point x="309" y="375" type="line"/>
      <point x="309" y="285" type="line"/>
      <point x="540" y="80" type="line"/>
    </contour>
    <contour>
      <point x="309" y="182" type="line"/>
      <point x="186" y="330" type="line"/>
      <point x="309" y="478" type="line"/>
      <point x="309" y="580" type="line"/>
      <point x="78" y="375" type="line"/>
      <point x="78" y="285" type="line"/>
      <point x="309" y="80" type="line"/>
    </contour>
  </outline>
</glyph>
<glyph name="uni00AD" format="1">
  <advance width="618"/>
  <unicode hex="00AD"/>
  <note>
    uni00AD
  </note>
  <outline>
    <contour>
      <point x="501" y="285" type="line"/>
      <point x="501" y="375" type="line"/>
      <point x="117" y="375" type="line"/>
      <point x="117" y="285" type="line"/>
    </contour>
  </outline>
</glyph>
<glyph name="periodcentered" format="1">
  <advance width="618"/>
  <unicode hex="00B7"/>
  <note>
    periodcentered
  </note>
  <outline>
    <contour>
      <point x="354" y="285"/>
      <point x="399" y="330"/>
      <point x="399" y="375" type="curve" smooth="yes"/>
      <point x="399" y="420"/>
      <point x="354" y="465"/>
      <point x="309" y="465" type="curve" smooth="yes"/>
      <point x="264" y="465"/>
      <point x="219" y="420"/>
      <point x="219" y="375" type="curve" smooth="yes"/>
      <point x="219" y="330"/>
      <point x="264" y="285"/>
      <point x="309" y="285" type="curve" smooth="yes"/>
    </contour>
  </outline>
</glyph>
<glyph name="germandbls" format="1">
  <advance width="618"/>
  <unicode hex="00DF"/>
  <note>
    germandbls
  </note>
  <outline>
    <contour>
      <point x="179" y="0" type="line"/>
      <point x="179" y="552" type="line" smooth="yes"/>
      <point x="179" y="622"/>
      <point x="228" y="660"/>
      <point x="298" y="660" type="curve" smooth="yes"/>
      <point x="368" y="660"/>
      <point x="417" y="622"/>
      <point x="417" y="552" type="curve" smooth="yes"/>
      <point x="417" y="482"/>
      <point x="368" y="444"/>
      <point x="298" y="444" type="curve"/>
      <point x="298" y="354" type="line"/>
      <point x="388" y="354"/>
      <point x="439" y="312"/>
      <point x="439" y="222" type="curve" smooth="yes"/>
      <point x="439" y="132"/>
      <point x="388" y="90"/>
      <point x="298" y="90" type="curve"/>
      <point x="298" y="0" type="line"/>
      <point x="438" y="0"/>
      <point x="529" y="102"/>
      <point x="529" y="222" type="curve" smooth="yes"/>
      <point x="529" y="340"/>
      <point x="465" y="368"/>
      <point x="439" y="398" type="curve"/>
      <point x="465" y="428"/>
      <point x="506" y="468"/>
      <point x="506" y="552" type="curve" smooth="yes"/>
      <point x="506" y="672"/>
      <point x="438" y="750"/>
      <point x="298" y="750" type="curve" smooth="yes"/>
      <point x="158" y="750"/>
      <point x="89" y="672"/>
      <point x="89" y="552" type="curve" smooth="yes"/>
      <point x="89" y="0" type="line"/>
    </contour>
  </outline>
</glyph>
<glyph name="divide" format="1">
  <advance width="618"/>
  <unicode hex="00F7"/>
  <note>
    divide
  </note>
  <outline>
    <contour>
      <point x="540" y="410" type="line"/>
      <point x="540" y="500" type="line"/>
      <point x="78" y="500" type="line"/>
      <point x="78" y="410" type="line"/>
    </contour>
    <contour>
      <point x="354" y="220"/>
      <point x="371" y="236"/>
      <point x="371" y="281" type="curve" smooth="yes"/>
      <point x="371" y="326"/>
      <point x="354" y="343"/>
      <point x="309" y="343" type="curve" smooth="yes"/>
      <point x="264" y="343"/>
      <point x="247" y="326"/>
      <point x="247" y="281" type="curve" smooth="yes"/>
      <point x="247" y="236"/>
      <point x="264" y="220"/>
      <point x="309" y="220" type="curve" smooth="yes"/>
    </contour>
    <contour>
      <point x="354" y="566"/>
      <point x="371" y="583"/>
      <point x="371" y="628" type="curve" smooth="yes"/>
      <point x="371" y="673"/>
      <point x="354" y="690"/>
      <point x="309" y="690" type="curve" smooth="yes"/>
      <point x="264" y="690"/>
      <point x="247" y="673"/>
      <point x="247" y="628" type="curve" smooth="yes"/>
      <point x="247" y="583"/>
      <point x="264" y="566"/>
      <point x="309" y="566" type="curve" smooth="yes"/>
    </contour>
  </outline>
</glyph>
<glyph name="thorn" format="1">
  <advance width="618"/>
  <unicode hex="00FE"/>
  <note>
    thorn
  </note>
  <outline>
    <contour>
      <point x="168" y="-250" type="line"/>
      <point x="168" y="90" type="line"/>
      <point x="168" y="90"/>
      <point x="169" y="45"/>
      <point x="309" y="45" type="curve" smooth="yes"/>
      <point x="539" y="45"/>
      <point x="540" y="250"/>
      <point x="540" y="250" type="curve" smooth="yes"/>
      <point x="540" y="250"/>
      <point x="539" y="455"/>
      <point x="309" y="455" type="curve" smooth="yes"/>
      <point x="169" y="455"/>
      <point x="168" y="410"/>
      <point x="168" y="410" type="curve"/>
      <point x="168" y="750" type="line"/>
      <point x="78" y="750" type="line"/>
      <point x="78" y="-250" type="line"/>
    </contour>
    <contour>
      <point x="169" y="135"/>
      <point x="168" y="180"/>
      <point x="168" y="180" type="curve"/>
      <point x="168" y="320" type="line"/>
      <point x="168" y="320"/>
      <point x="169" y="365"/>
      <point x="309" y="365" type="curve" smooth="yes"/>
      <point x="449" y="365"/>
      <point x="450" y="250"/>
      <point x="450" y="250" type="curve" smooth="yes"/>
      <point x="450" y="250"/>
      <point x="449" y="135"/>
      <point x="309" y="135" type="curve" smooth="yes"/>
    </contour>
  </outline>
</glyph>
<glyph name="oe" format="1">
  <advance width="618"/>
  <unicode hex="0153"/>
  <note>
    oe
  </note>
  <outline>
    <contour>
      <point x="270" y="0"/>
      <point x="302" y="0"/>
      <point x="320" y="20" type="curve"/>
      <point x="352" y="11"/>
      <point x="418" y="0"/>
      <point x="540" y="0" type="curve"/>
      <point x="540" y="74" type="line"/>
      <point x="476" y="74" type="line" smooth="yes"/>
      <point x="354" y="74"/>
      <point x="354" y="94"/>
      <point x="354" y="202" type="curve" smooth="yes"/>
      <point x="354" y="207" type="line"/>
      <point x="540" y="207" type="line"/>
      <point x="540" y="250" type="line" smooth="yes"/>
      <point x="540" y="500"/>
      <point x="535" y="500"/>
      <point x="404" y="500" type="curve" smooth="yes"/>
      <point x="357" y="500"/>
      <point x="332" y="496"/>
      <point x="312" y="484" type="curve"/>
      <point x="294" y="484"/>
      <point x="262" y="500"/>
      <point x="210" y="500" type="curve" smooth="yes"/>
      <point x="78" y="500"/>
      <point x="78" y="500"/>
      <point x="78" y="250" type="curve" smooth="yes"/>
      <point x="78" y="0"/>
      <point x="78" y="0"/>
      <point x="210" y="0" type="curve" smooth="yes"/>
    </contour>
    <contour>
      <point x="152" y="74"/>
      <point x="152" y="90"/>
      <point x="152" y="250" type="curve" smooth="yes"/>
      <point x="152" y="410"/>
      <point x="162" y="414"/>
      <point x="210" y="414" type="curve" smooth="yes"/>
      <point x="264" y="414"/>
      <point x="264" y="410"/>
      <point x="264" y="250" type="curve" smooth="yes"/>
      <point x="264" y="90"/>
      <point x="264" y="74"/>
      <point x="210" y="74" type="curve" smooth="yes"/>
    </contour>
    <contour>
      <point x="354" y="354" type="line" smooth="yes"/>
      <point x="354" y="408"/>
      <point x="358" y="414"/>
      <point x="404" y="414" type="curve" smooth="yes"/>
      <point x="464" y="414"/>
      <point x="465" y="408"/>
      <point x="465" y="293" type="curve"/>
      <point x="354" y="293" type="line"/>
    </contour>
  </outline>
</glyph>
<glyph name="jdotless" format="1">
  <advance width="618"/>
  <unicode hex="0237"/>
  <outline>
    <contour>
      <point x="515" y="-250"/>
      <point x="530" y="-88"/>
      <point x="530" y="-45" type="curve" smooth="yes"/>
      <point x="530" y="500" type="line"/>
      <point x="158" y="500" type="line"/>
      <point x="158" y="410" type="line"/>
      <point x="440" y="410" type="line"/>
      <point x="440" y="-45" type="line" smooth="yes"/>
      <point x="440" y="-141"/>
      <point x="374" y="-160"/>
      <point x="299" y="-160" type="curve" smooth="yes"/>
      <point x="219" y="-160"/>
      <point x="178" y="-137"/>
      <point x="133" y="-115" type="curve"/>
      <point x="93" y="-190" type="line"/>
      <point x="155" y="-221"/>
      <point x="224" y="-250"/>
      <point x="299" y="-250" type="curve" smooth="yes"/>
    </contour>
  </outline>
</glyph>
<glyph name="acutecomb" format="1">
  <advance width="618"/>
  <unicode hex="0301"/>
  <outline>
    <component base="gravecomb" xOffset="618" xScale="-1"/>
    <contour>
      <point x="310" y="500" type="move" name="_top"/>
    </contour>
  </outline>
</glyph>
<glyph name="circumflexcomb" format="1">
  <advance width="618"/>
  <unicode hex="0302"/>
  <outline>
    <contour>
      <point x="214" y="545" type="line"/>
      <point x="309" y="667" type="line"/>
      <point x="404" y="545" type="line"/>
      <point x="500" y="545" type="line"/>
      <point x="354" y="750" type="line"/>
      <point x="264" y="750" type="line"/>
      <point x="117" y="545" type="line"/>
    </contour>
    <contour>
      <point x="308" y="500" type="move" name="_top"/>
    </contour>
  </outline>
</glyph>
<glyph name="dieresiscomb" format="1">
  <advance width="618"/>
  <unicode hex="0308"/>
  <outline>
    <contour>
      <point x="480" y="566"/>
      <point x="496" y="583"/>
      <point x="496" y="628" type="curve" smooth="yes"/>
      <point x="496" y="673"/>
      <point x="480" y="690"/>
      <point x="435" y="690" type="curve" smooth="yes"/>
      <point x="390" y="690"/>
      <point x="372" y="673"/>
      <point x="372" y="628" type="curve" smooth="yes"/>
      <point x="372" y="583"/>
      <point x="390" y="566"/>
      <point x="435" y="566" type="curve" smooth="yes"/>
    </contour>
    <contour>
      <point x="230" y="566"/>
      <point x="246" y="583"/>
      <point x="246" y="628" type="curve" smooth="yes"/>
      <point x="246" y="673"/>
      <point x="230" y="690"/>
      <point x="185" y="690" type="curve" smooth="yes"/>
      <point x="140" y="690"/>
      <point x="122" y="673"/>
      <point x="122" y="628" type="curve" smooth="yes"/>
      <point x="122" y="583"/>
      <point x="140" y="566"/>
      <point x="185" y="566" type="curve" smooth="yes"/>
    </contour>
    <contour>
      <point x="308" y="500" type="move" name="_top"/>
    </contour>
  </outline>
</glyph>
<glyph name="cedillacomb" format="1">
  <advance width="618"/>
  <unicode hex="0327"/>
  <outline>
    <contour>
      <point x="308" y="-250" type="line" smooth="yes"/>
      <point x="376" y="-250"/>
      <point x="449" y="-250"/>
      <point x="449" y="-144" type="curve" smooth="yes"/>
      <point x="449" y="-40"/>
      <point x="379" y="-39"/>
      <point x="357" y="-39" type="curve" smooth="yes"/>
      <point x="354" y="-39" type="line"/>
      <point x="354" y="28" type="line"/>
      <point x="264" y="28" type="line"/>
      <point x="264" y="-102" type="line"/>
      <point x="308" y="-102" type="line" smooth="yes"/>
      <point x="356" y="-102"/>
      <point x="376" y="-112"/>
      <point x="376" y="-144" type="curve" smooth="yes"/>
      <point x="376" y="-176"/>
      <point x="351" y="-188"/>
      <point x="308" y="-188" type="curve" smooth="yes"/>
      <point x="198" y="-188" type="line"/>
      <point x="198" y="-250" type="line"/>
    </contour>
    <contour>
      <point x="308" y="0" type="move" name="_bottom"/>
    </contour>
  </outline>
</glyph>
<glyph name="ogonekcomb" format="1">
  <advance width="618"/>
  <unicode hex="0328"/>
  <outline>
    <contour>
      <point x="462" y="-196" type="line"/>
      <point x="446" y="-134" type="line"/>
      <point x="378" y="-150" type="line" smooth="yes"/>
      <point x="316" y="-165"/>
      <point x="285" y="-126"/>
      <point x="302" y="-92" type="curve" smooth="yes"/>
      <point x="315" y="-65"/>
      <point x="386" y="-48"/>
      <point x="450" y="0" type="curve"/>
      <point x="377" y="0" type="line" smooth="yes"/>
      <point x="294" y="0"/>
      <point x="236" y="-50"/>
      <point x="236" y="-126" type="curve" smooth="yes"/>
      <point x="236" y="-232"/>
      <point x="326" y="-226"/>
      <point x="399" y="-210" type="curve" smooth="yes"/>
    </contour>
    <contour>
      <point x="450" y="0" type="move" name="_ogonek"/>
    </contour>
  </outline>
</glyph>
<glyph name="bitcoin" format="1">
  <advance width="618"/>
  <unicode hex="20BF"/>
  <outline>
    <contour>
      <point x="217" y="-200" type="line"/>
      <point x="217" y="-90" type="line"/>
      <point x="294" y="-90" type="line"/>
      <point x="294" y="-200" type="line"/>
      <point x="374" y="-200" type="line"/>
      <point x="374" y="-85" type="line"/>
      <point x="547" y="-54"/>
      <point x="548" y="120"/>
      <point x="548" y="120" type="curve" smooth="yes"/>
      <point x="548" y="120"/>
      <point x="547" y="221"/>
      <point x="441" y="279" type="curve"/>
      <point x="503" y="313"/>
      <point x="503" y="410"/>
      <point x="503" y="410" type="curve" smooth="yes"/>
      <point x="503" y="410"/>
      <point x="503" y="562"/>
      <point x="374" y="597" type="curve"/>
      <point x="374" y="714" type="line"/>
      <point x="294" y="714" type="line"/>
      <point x="294" y="604" type="line"/>
      <point x="217" y="604" type="line"/>
      <point x="217" y="714" type="line"/>
      <point x="137" y="714" type="line"/>
      <point x="137" y="604" type="line"/>
      <point x="70" y="604" type="line"/>
      <point x="70" y="-90" type="line"/>
      <point x="137" y="-90" type="line"/>
      <point x="137" y="-200" type="line"/>
    </contour>
    <contour>
      <point x="160" y="240" type="line"/>
      <point x="317" y="240" type="line" smooth="yes"/>
      <point x="457" y="240"/>
      <point x="458" y="120"/>
      <point x="458" y="120" type="curve" smooth="yes"/>
      <point x="458" y="120"/>
      <point x="457" y="0"/>
      <point x="317" y="0" type="curve" smooth="yes"/>
      <point x="160" y="0" type="line"/>
    </contour>
    <contour>
      <point x="160" y="514" type="line"/>
      <point x="317" y="514" type="line" smooth="yes"/>
      <point x="413" y="514"/>
      <point x="413" y="410"/>
      <point x="413" y="410" type="curve" smooth="yes"/>
      <point x="413" y="410"/>
      <point x="413" y="307"/>
      <point x="317" y="307" type="curve" smooth="yes"/>
      <point x="160" y="307" type="line"/>
    </contour>
  </outline>
</glyph>
<glyph name="uni258F" format="1">
  <advance width="618"/>
  <unicode hex="258F"/>
  <note>
    uni258F
  </note>
  <outline>
    <contour>
      <point x="77" y="-375" type="line"/>
      <point x="77" y="875" type="line"/>
      <point x="0" y="875" type="line"/>
      <point x="0" y="-375" type="line"/>
    </contour>
  </outline>
</glyph>
<glyph name="uni25A3" format="1">
  <advance width="618"/>
  <unicode hex="25A3"/>
  <note>
    uni25A3
  </note>
  <outline>
    <contour>
      <point x="618" y="0" type="line"/>
      <point x="618" y="617" type="line"/>
      <point x="0" y="617" type="line"/>
      <point x="0" y="0" type="line"/>
    </contour>
    <contour>
      <point x="60" y="557" type="line"/>
      <point x="558" y="557" type="line"/>
      <point x="558" y="60" type="line"/>
      <point x="60" y="60" type="line"/>
    </contour>
    <contour>
      <point x="459" y="159" type="line"/>
      <point x="459" y="459" type="line"/>
      <point x="159" y="459" type="line"/>
      <point x="159" y="159" type="line"/>
    </contour>
  </outline>
</glyph>
<glyph name="uni25B9" format="1">
  <advance width="618"/>
  <unicode hex="25B9"/>
  <note>
    uni25B9
  </note>
  <outline>
    <contour>
      <point x="459" y="375" type="line"/>
      <point x="159" y="524" type="line"/>
      <point x="159" y="224" type="line"/>
    </contour>
    <contour>
      <point x="199" y="460" type="line"/>
      <point x="370" y="375" type="line"/>
      <point x="199" y="288" type="line"/>
    </contour>
  </outline>
</glyph>
<glyph name="uni25BB" format="1">
  <advance width="618"/>
  <unicode hex="25BB"/>
  <note>
    uni25BB
  </note>
  <outline>
    <contour>
      <point x="618" y="375" type="line"/>
      <point x="0" y="549" type="line"/>
      <point x="0" y="199" type="line"/>
    </contour>
    <contour>
      <point x="60" y="469" type="line"/>
      <point x="400" y="375" type="line"/>
      <point x="60" y="279" type="line"/>
    </contour>
  </outline>
</glyph>
<glyph name="checkmark" format="1">
  <advance width="618"/>
  <unicode hex="2713"/>
  <outline>
    <contour>
      <point x="618" y="416" type="line"/>
      <point x="554" y="480" type="line"/>
      <point x="202" y="127" type="line"/>
      <point x="62" y="264" type="line"/>
      <point x="0" y="202" type="line"/>
      <point x="202" y="0" type="line"/>
    </contour>
  </outline>
</glyph>
